<?xml version="1.0" standalone="no"?>
<!DOCTYPE svg PUBLIC "-//W3C//DTD SVG 20010904//EN"
 "http://www.w3.org/TR/2001/REC-SVG-20010904/DTD/svg10.dtd">
<svg version="1.0" xmlns="http://www.w3.org/2000/svg"
 width="248.000000pt" height="217.000000pt" viewBox="0 0 248.000000 217.000000"
 preserveAspectRatio="xMidYMid meet">

<g transform="translate(0.000000,217.000000) scale(0.100000,-0.100000)"
fill="#000000" stroke="none">
<path d="M0 1085 l0 -1085 1240 0 1240 0 0 1085 0 1085 -1240 0 -1240 0 0
-1085z m900 374 c187 -135 234 -159 316 -159 73 0 131 31 313 163 96 70 183
127 193 127 19 0 98 -100 98 -124 0 -8 -73 -68 -162 -133 l-163 -118 205 -5
205 -5 0 -85 0 -85 -204 -5 -205 -5 158 -114 c87 -63 160 -121 163 -128 7 -17
-69 -127 -91 -131 -9 -2 -82 44 -163 103 -157 115 -180 129 -170 102 3 -9 31
-94 61 -189 42 -128 53 -175 45 -185 -17 -20 -131 -52 -150 -43 -9 5 -39 84
-73 189 -31 100 -60 181 -64 181 -4 0 -32 -77 -62 -172 -30 -94 -61 -180 -70
-190 -15 -18 -17 -18 -85 5 -42 14 -71 30 -73 40 -2 8 22 95 54 192 31 97 54
178 51 181 -3 3 -72 -43 -153 -102 -82 -59 -156 -109 -165 -111 -16 -5 -73 56
-97 103 -15 29 -10 34 156 154 78 57 145 107 148 111 3 5 -82 9 -189 9 -155 0
-197 3 -206 14 -7 9 -11 42 -9 88 l3 73 203 3 c111 1 202 6 202 10 0 4 -70 57
-155 117 -85 61 -157 116 -160 123 -7 20 74 132 96 132 10 0 100 -59 199 -131z
m258 62 c4 -50 -7 -66 -37 -56 -17 5 -21 14 -21 49 0 49 6 58 35 54 16 -2 21
-12 23 -47z m160 37 c17 -17 15 -73 -4 -89 -33 -27 -64 21 -50 77 7 26 34 32
54 12z"/>
</g>
</svg>
