<svg width="183" height="55" viewBox="0 0 183 55" fill="none" xmlns="http://www.w3.org/2000/svg">
<path fill-rule="evenodd" clip-rule="evenodd" d="M52.3628 18.2217L71.9799 18.2252C72.8694 18.2252 73.5886 18.8769 73.5847 19.6862V25.1026C73.5847 25.9084 72.8655 26.56 71.9761 26.56L52.3628 26.5565C51.9181 26.5565 51.7324 27.0716 52.0921 27.3098L67.9583 37.7573C68.6776 38.2302 68.8361 39.1411 68.3141 39.7928L64.799 44.1757C64.2769 44.8273 63.2715 44.971 62.5523 44.498L46.686 34.0505C46.3264 33.8123 45.8392 34.1311 45.9784 34.5165L52.0341 51.4139C52.3086 52.1812 51.8485 53.0045 51.0016 53.2533L45.3133 54.928C44.4664 55.1767 43.5577 54.7598 43.2831 53.9925L37.2274 37.1021C37.0921 36.7167 36.4927 36.7167 36.3535 37.1021L30.2978 53.9925C30.0194 54.7563 29.1145 55.1767 28.2676 54.928L22.5793 53.2533C21.7363 53.0045 21.2723 52.1812 21.5468 51.4139L27.6064 34.513C27.7456 34.1276 27.2583 33.8088 26.8987 34.047L11.0325 44.4945C10.3132 44.9675 9.30782 44.8238 8.78578 44.1722L5.27069 39.7893C4.74865 39.1376 4.9072 38.2267 5.62645 37.7538L21.4927 27.3063C21.8523 27.0681 21.6667 26.553 21.222 26.553L1.60866 26.5565C0.719258 26.5565 0 25.9049 0 25.0991V19.6827C0 18.8769 0.719258 18.2252 1.60866 18.2252L21.2142 18.2217C21.659 18.2217 21.8446 17.7067 21.4849 17.4684L18.7819 15.6887L9.72159 9.7257L5.61872 7.02449C4.89946 6.55152 4.74092 5.64061 5.26296 4.98895L8.77804 0.606065C9.0178 0.308267 9.35809 0.119078 9.72545 0.0420007C10.1624 -0.045587 10.6381 0.0279867 11.0286 0.283743L28.0433 11.481C33.2599 14.9144 40.3249 14.9144 45.5414 11.481L62.5561 0.283743C62.9699 0.0104692 63.4803 -0.0560975 63.9366 0.0595182C64.2731 0.147106 64.5824 0.329288 64.8028 0.606065L68.3179 4.98895C68.84 5.64061 68.6814 6.55152 67.9622 7.02449L63.9366 9.67314L54.7951 15.6887L52.0921 17.4684C51.7324 17.7067 51.9181 18.2217 52.3628 18.2217ZM177.505 15.7107C180.904 15.7107 183 13.9224 183 10.9751C182.997 8.08188 180.832 6.30974 177.573 6.30974C174.106 6.30974 172.102 8.15212 172.102 11.0454C172.102 13.9575 174.314 15.7107 177.505 15.7107ZM182.103 48.6818C182.597 48.6818 182.997 48.3198 182.997 47.8714V17.2074C182.997 16.759 182.597 16.397 182.103 16.397L172.996 16.5051C172.501 16.5051 172.102 16.867 172.102 17.3155V22.6157V40.9233V41.6689H166.848C166.556 41.6689 166.261 41.6176 165.995 41.5068C164.35 40.8206 163.536 39.2754 163.536 36.628V23.4261C163.536 22.9777 163.935 22.6157 164.43 22.6157H165.748H170.042C170.537 22.6157 170.936 22.2537 170.936 21.8053V17.3155C170.936 16.867 170.537 16.5051 170.042 16.5051H165.748H164.43C163.935 16.5051 163.536 16.1431 163.536 15.6946V11.1859C163.536 10.7375 163.136 10.3755 162.641 10.3755H153.535C153.04 10.3755 152.64 10.7375 152.64 11.1859V15.6946C152.64 16.1431 152.241 16.5051 151.746 16.5051H148.046C147.551 16.5051 147.151 16.867 147.151 17.3155V20.5572C143.797 17.4343 138.832 15.7027 132.791 15.7027C123.828 15.7027 117.653 19.2011 115.002 25.0875C112.277 19.1444 105.884 15.7027 97.3658 15.7027C85.1587 15.7027 78.113 22.1835 78.113 32.3706C78.113 42.6171 85.8952 48.7899 97.1183 48.7899C105.953 48.7899 112.28 45.351 114.988 39.3781C117.734 45.3618 124.183 48.7899 132.547 48.7899C142.819 48.7899 149.703 44.1434 151.442 36.266C151.552 35.769 151.123 35.3043 150.562 35.3043H142.5C141.471 35.3043 140.538 35.7987 139.968 36.5767C138.534 38.5433 135.988 39.6482 132.636 39.6482C127.615 39.6482 124.135 36.8874 124.135 32.303C124.135 27.7484 127.287 24.8471 132.747 24.8471C135.985 24.8471 138.537 25.9601 139.98 27.9267C140.547 28.702 141.48 29.191 142.506 29.191H150.592C151.153 29.191 151.582 28.729 151.472 28.232C151.009 26.1194 150.16 24.242 148.979 22.6184H151.746C152.241 22.6184 152.64 22.9804 152.64 23.4288V37.433C152.64 43.9138 155.261 48.7899 164.847 48.7899C165.002 48.7899 165.152 48.7873 165.304 48.7846L165.313 48.7845V48.7899L182.103 48.6818ZM97.2107 39.6455C92.1896 39.6455 88.7099 36.8847 88.7099 32.3003C88.7099 27.7457 91.8616 24.8444 97.3211 24.8444C102.453 24.8444 105.861 27.6323 105.861 32.1896C105.861 36.8306 102.56 39.6455 97.2107 39.6455ZM32.4788 6.03287C31.6242 6.03287 30.9358 5.40574 30.9358 4.63497V2.43827C30.9358 1.66399 31.628 1.04037 32.4788 1.04037C33.3334 1.04037 34.0217 1.6675 34.0217 2.43827V4.63497C34.0217 5.40574 33.3295 6.03287 32.4788 6.03287ZM39.5476 4.63497C39.5476 5.40574 40.2359 6.03287 41.0905 6.03287C41.9451 6.03287 42.6334 5.40574 42.6334 4.63497V2.43827C42.6334 1.6675 41.9451 1.04037 41.0905 1.04037C40.2398 1.04037 39.5476 1.66399 39.5476 2.43827V4.63497Z" fill="#05A0BB"/>
</svg>
